<svg width="32" height="32" viewBox="0 0 32 32" fill="none" xmlns="http://www.w3.org/2000/svg">
  <defs>
    <linearGradient id="vestGrad" x1="0%" y1="0%" x2="100%" y2="100%">
      <stop offset="0%" style="stop-color:#667eea;stop-opacity:1" />
      <stop offset="100%" style="stop-color:#764ba2;stop-opacity:1" />
    </linearGradient>
  </defs>
  <rect width="32" height="32" rx="4" fill="#0f172a"/>
  <!-- Vest shape -->
  <path d="M8 8 L12 6 L20 6 L24 8 L24 22 L20 24 L12 24 L8 22 Z" fill="#334155"/>
  <path d="M8 8 L12 6 L20 6 L24 8 L24 22 L20 24 L12 24 L8 22 Z" stroke="url(#vestGrad)" stroke-width="1"/>
  <!-- Weight plates visible on vest -->
  <circle cx="12" cy="14" r="2.5" fill="#1e293b" stroke="url(#vestGrad)" stroke-width="0.5"/>
  <circle cx="20" cy="14" r="2.5" fill="#1e293b" stroke="url(#vestGrad)" stroke-width="0.5"/>
  <circle cx="12" cy="18" r="2.5" fill="#1e293b" stroke="url(#vestGrad)" stroke-width="0.5"/>
  <circle cx="20" cy="18" r="2.5" fill="#1e293b" stroke="url(#vestGrad)" stroke-width="0.5"/>
  <!-- Shoulder straps -->
  <rect x="10" y="6" width="3" height="8" rx="1" fill="url(#vestGrad)" opacity="0.6"/>
  <rect x="19" y="6" width="3" height="8" rx="1" fill="url(#vestGrad)" opacity="0.6"/>
</svg>

